<svg width="40" height="38" viewBox="0 0 40 38" fill="none" xmlns="http://www.w3.org/2000/svg">
<path opacity="0.4" fill-rule="evenodd" clip-rule="evenodd" d="M20 0C8.9543 8.96796e-07 -9.65645e-07 8.31588 0 18.574C9.65645e-07"/>
<path opacity="0.4" fill-rule="evenodd" clip-rule="evenodd" d="M20 0C8.9543 8.96796e-07 -9.65645e-07 8.31588 0 18.574C9.65645e-07 28.8322 8.95431 37.1481 20 37.1481C31.0457 37.1481 40 28.8322 40 18.574C40 8.31588 31.0457 -8.96796e-07 20 0ZM24.5664 12.7449C25.1445 12.2194 25.1445 11.3675 24.5664 10.842C23.9884 10.3165 23.0511 10.3165 22.473 10.842L14.1836 18.3771C13.6055 18.9026 13.6055 19.7546 14.1836 20.2801L22.473 27.8152C23.0511 28.3407 23.9884 28.3407 24.5664 27.8152C25.1445 27.2897 25.1445 26.4378 24.5664 25.9123L17.3237 19.3286L24.5664 12.7449Z" fill="#B0A6BD"/>
<path opacity="0.8" d="M24.5664 10.842C25.1445 11.3675 25.1445 12.2194 24.5664 12.7449L17.3237 19.3286L24.5664 25.9123C25.1445 26.4378 25.1445 27.2897 24.5664 27.8152C23.9884 28.3407 23.0511 28.3407 22.473 27.8152L14.1836 20.28C13.6055 19.7546 13.6055 18.9026 14.1836 18.3771L22.473 10.842C23.0511 10.3165 23.9884 10.3165 24.5664 10.842Z" fill="white"/>
</svg>
