<svg width="40" height="38" viewBox="0 0 40 38" fill="none" xmlns="http://www.w3.org/2000/svg">
<path opacity="0.4" fill-rule="evenodd" clip-rule="evenodd" d="M20 37.1481C31.0457 37.1481 40 28.8322 40 18.574C40 8.31588 31.0457 2.31011e-06 20 2.31011e-06C8.95431 2.31011e-06 4.13264e-06 8.31588 4.13264e-06 18.574C4.13264e-06 28.8322 8.95431 37.1481 20 37.1481ZM15.4336 24.4032C14.8555 24.9286 14.8555 25.7806 15.4336 26.3061C16.0116 26.8315 16.9489 26.8315 17.527 26.3061L25.8164 18.7709C26.3945 18.2454 26.3945 17.3935 25.8164 16.868L17.527 9.33286C16.9489 8.80739 16.0116 8.80739 15.4336 9.33286C14.8555 9.85834 14.8555 10.7103 15.4336 11.2358L22.6763 17.8195L15.4336 24.4032Z" fill="#B0A6BD"/>
</svg>
