<svg width="240" height="136" viewBox="0 0 240 136" fill="none" xmlns="http://www.w3.org/2000/svg">
<g opacity="0.34">
<circle cx="3" cy="3" r="3" fill="#5F59F7"/>
<circle cx="3" cy="29" r="3" fill="#5F59F7"/>
<circle cx="3" cy="55" r="3" fill="#5F59F7"/>
<circle cx="3" cy="81" r="3" fill="#5F59F7"/>
<circle cx="3" cy="107" r="3" fill="#5F59F7"/>
<circle cx="3" cy="133" r="3" fill="#5F59F7"/>
<circle cx="29" cy="3" r="3" fill="#5F59F7"/>
<circle cx="29" cy="29" r="3" fill="#5F59F7"/>
<circle cx="29" cy="55" r="3" fill="#5F59F7"/>
<circle cx="29" cy="81" r="3" fill="#5F59F7"/>
<c<svg width="240" height="136" viewBox="0 0 240 136" fill="none" xmlns="http://www.w3.org/2000/svg">
<g opacity="0.34">
<circle cx="3" cy="3" r="3" fill="#5F59F7"/>
<circle cx="3" cy="29" r="3" fill="#5F59F7"/>
<circle cx="3" cy="55" r="3" fill="#5F59F7"/>
<circle cx="3" cy="81" r="3" fill="#5F59F7"/>
<circle cx="3" cy="107" r="3" fill="#5F59F7"/>
<circle cx="3" cy="133" r="3" fill="#5F59F7"/>
<circle cx="29" cy="3" r="3" fill="#5F59F7"/>
<circle cx="29" cy="29" r="3" fill="#5F59F7"/>
<circle cx="29" cy="55" r="3" fill="#5F59F7"/>
<circle cx="29" cy="81" r="3" fill="#5F59F7"/>
<circle cx="29" cy="107" r="3" fill="#5F59F7"/>
<circle cx="29" cy="133" r="3" fill="#5F59F7"/>
<circle cx="55" cy="3" r="3" fill="#5F59F7"/>
<circle cx="55" cy="29" r="3" fill="#5F59F7"/>
<circle cx="55" cy="55" r="3" fill="#5F59F7"/>
<circle cx="55" cy="81" r="3" fill="#5F59F7"/>
<circle cx="55" cy="107" r="3" fill="#5F59F7"/>
<circle cx="55" cy="133" r="3" fill="#5F59F7"/>
<circle cx="81" cy="3" r="3" fill="#5F59F7"/>
<circle cx="81" cy="29" r="3" fill="#5F59F7"/>
<circle cx="81" cy="55" r="3" fill="#5F59F7"/>
<circle cx="81" cy="81" r="3" fill="#5F59F7"/>
<circle cx="81" cy="107" r="3" fill="#5F59F7"/>
<circle cx="81" cy="133" r="3" fill="#5F59F7"/>
<circle cx="107" cy="3" r="3" fill="#5F59F7"/>
<circle cx="107" cy="29" r="3" fill="#5F59F7"/>
<circle cx="107" cy="55" r="3" fill="#5F59F7"/>
<circle cx="107" cy="81" r="3" fill="#5F59F7"/>
<circle cx="107" cy="107" r="3" fill="#5F59F7"/>
<circle cx="107" cy="133" r="3" fill="#5F59F7"/>
<circle cx="133" cy="3" r="3" fill="#5F59F7"/>
<circle cx="133" cy="29" r="3" fill="#5F59F7"/>
<circle cx="133" cy="55" r="3" fill="#5F59F7"/>
<circle cx="133" cy="81" r="3" fill="#5F59F7"/>
<circle cx="133" cy="107" r="3" fill="#5F59F7"/>
<circle cx="133" cy="133" r="3" fill="#5F59F7"/>
<circle cx="159" cy="3" r="3" fill="#5F59F7"/>
<circle cx="159" cy="29" r="3" fill="#5F59F7"/>
<circle cx="159" cy="55" r="3" fill="#5F59F7"/>
<circle cx="159" cy="81" r="3" fill="#5F59F7"/>
<circle cx="159" cy="107" r="3" fill="#5F59F7"/>
<circle cx="159" cy="133" r="3" fill="#5F59F7"/>
<circle cx="185" cy="3" r="3" fill="#5F59F7"/>
<circle cx="185" cy="29" r="3" fill="#5F59F7"/>
<circle cx="185" cy="55" r="3" fill="#5F59F7"/>
<circle cx="185" cy="81" r="3" fill="#5F59F7"/>
<circle cx="185" cy="107" r="3" fill="#5F59F7"/>
<circle cx="185" cy="133" r="3" fill="#5F59F7"/>
<circle cx="211" cy="3" r="3" fill="#5F59F7"/>
<circle cx="211" cy="29" r="3" fill="#5F59F7"/>
<circle cx="211" cy="55" r="3" fill="#5F59F7"/>
<circle cx="211" cy="81" r="3" fill="#5F59F7"/>
<circle cx="211" cy="107" r="3" fill="#5F59F7"/>
<circle cx="211" cy="133" r="3" fill="#5F59F7"/>
<circle cx="237" cy="3" r="3" fill="#5F59F7"/>
<circle cx="237" cy="29" r="3" fill="#5F59F7"/>
<circle cx="237" cy="55" r="3" fill="#5F59F7"/>
<circle cx="237" cy="81" r="3" fill="#5F59F7"/>
<circle cx="237" cy="107" r="3" fill="#5F59F7"/>
<circle cx="237" cy="133" r="3" fill="#5F59F7"/>
</g>
</svg>
