<svg width="20" height="20" viewBox="0 0 20 20" fill="none" xmlns="http://www.w3.org/2000/svg">
<path d="M9.60915 0.28447C9.74433 -0.0948236 10.2557 -0.0948233 10.3908 0.28447L12.6846 6.72064C12.7433 6.88519 12.89 6.99703 13.0573 7.0047L19.6003 7.30466C19.9858 7.32234 20.1439 7.83258 19.8418 8.08468L14.7165 12.3624C14.5855 12.4718 14.5294 12.6527 14.5742 12.822L16.3241 19.4436C16.4273 19.8338 16.0136 20.1492 15.6917 19.9257L10.2303 16.1333C10.0907 16.0363 9.90933 16.0363 9."/>
<path d="M9.60915 0.28447C9.74433 -0.0948236 10.2557 -0.0948233 10.3908 0.28447L12.6846 6.72064C12.7433 6.88519 12.89 6.99703 13.0573 7.0047L19.6003 7.30466C19.9858 7.32234 20.1439 7.83258 19.8418 8.08468L14.7165 12.3624C14.5855 12.4718 14.5294 12.6527 14.5742 12.822L16.3241 19.4436C16.4273 19.8338 16.0136 20.1492 15.6917 19.9257L10.2303 16.1333C10.0907 16.0363 9.90933 16.0363 9.7697 16.1333L4.30827 19.9257C3.98642 20.1492 3.57274 19.8338 3.67587 19.4436L5.42585 12.822C5.47059 12.6527 5.41455 12.4718 5.28351 12.3624L0.158185 8.08468C-0.143858 7.83258 0.0141558 7.32234 0.399743 7.30466L6.94272 7.0047C7.11 6.99703 7.25671 6.88519 7.31535 6.72064L9.60915 0.28447Z" fill="#5F59F7"/>
</svg>
