<svg width="20" height="20" viewBox="0 0 20 20" fill="none" xmlns="http://www.w3.org/2000/svg">
<path d="M7.78633 6.8885L10 0.67717L12.2137 6.8885C12.3366 7.23347 12.653 7.48669 13.0344 7.50417L19.407 7.79633L14.3961 11.9785C14.1111 12.2164 13.998 12.599 14.0907 12.9498L15.7919 19.3865L10.5155 15.7226C10.2044 15.5066 9.79562 15.5066 9.48451 15.7226L4.20812 19.3865L5.90925 12.9498C6.00195 12.599 5.88891 12.2164 5.6039 11.9785L0.593013 7.79633L6.96562 7.50417C7.347 7.48669 7.66339 7.23347 7.78633 6.8885ZM19.5214 7.70081L19.5213 7.70091L19.5214 7.70081ZM0.47857 7.70081C0.478612 7.70084 0.478653 7.70088 0.478694 7.70091L0.47857 7.70081Z" stroke="#5F59F7"/>
</svg>
